{
  "accessors": [
    {
      "bufferView": 2,
      "componentType": 5126,
      "count": 65532,
      "max": [
        -2.6871390342712402,
        33.365676879882812,
        19.386453628540039
      ],
      "min": [
        -59.093437194824219,
        -36.372440338134766,
        -0.37096056342124939
      ],
      "type": "VEC3"
    },
    {
      "bufferView": 2,
      "byteOffset": 786384,
      "componentType": 5126,
      "count": 65532,
      "max": [
        0.9999542236328125,
        0.99992424249649048,
        0.99998831748962402
      ],
      "min": [
        -0.99999320507049561,
        -0.99999958276748657,
        -1
      ],
      "type": "VEC3"
    },
    {
      "bufferView": 1,
      "componentType": 5126,
      "count": 65532,
      "max": [
        0.99957263469696045,
        0.94061267375946045
      ],
      "min": [
        0.00018310546875,
        0.00042714609298855066
      ],
      "type": "VEC2"
    },
    {
      "bufferView": 0,
      "componentType": 5125,
      "count": 246453,
      "max": [
        65531
      ],
      "min": [
        0
      ],
      "type": "SCALAR"
    },
    {
      "bufferView": 2,
      "byteOffset": 1572768,
      "componentType": 5126,
      "count": 65532,
      "max": [
        -2.7152538299560547,
        33.236888885498047,
        20.859590530395508
      ],
      "min": [
        -58.92913818359375,
        -33.677143096923828,
        -0.33639419078826904
      ],
      "type": "VEC3"
    },
    {
      "bufferView": 2,
      "byteOffset": 2359152,
      "componentType": 5126,
      "count": 65532,
      "max": [
        0.99998873472213745,
        0.9999845027923584,
        0.99999946355819702
      ],
      "min": [
        -0.99999320507049561,
        -0.99997293949127197,
        -0.99999278783798218
      ],
      "type": "VEC3"
    },
    {
      "bufferView": 1,
      "byteOffset": 524256,
      "componentType": 5126,
      "count": 65532,
      "max": [
        0.99957275390625,
        0.93756091594696045
      ],
      "min": [
        0.00018310546875,
        0.00042714609298855066
      ],
      "type": "VEC2"
    },
    {
      "bufferView": 0,
      "byteOffset": 985812,
      "componentType": 5125,
      "count": 225528,
      "max": [
        65531
      ],
      "min": [
        0
      ],
      "type": "SCALAR"
    },
    {
      "bufferView": 2,
      "byteOffset": 3145536,
      "componentType": 5126,
      "count": 65532,
      "max": [
        -2.85268235206604,
        12.618027687072754,
        24.024240493774414
      ],
      "min": [
        -58.836330413818359,
        -36.337429046630859,
        -0.33482924103736877
      ],
      "type": "VEC3"
    },
    {
      "bufferView": 2,
      "byteOffset": 3931920,
      "componentType": 5126,
      "count": 65532,
      "max": [
        0.99999415874481201,
        0.99994385242462158,
        0.99999827146530151
      ],
      "min": [
        -0.99992489814758301,
        -0.99997377395629883,
        -0.99999994039535522
      ],
      "type": "VEC3"
    },
    {
      "bufferView": 1,
      "byteOffset": 1048512,
      "componentType": 5126,
      "count": 65532,
      "max": [
        0.99957269430160522,
        0.94061267375946045
      ],
      "min": [
        0.00018310546875,
        0.00042714609298855066
      ],
      "type": "VEC2"
    },
    {
      "bufferView": 0,
      "byteOffset": 1887924,
      "componentType": 5125,
      "count": 203280,
      "max": [
        65531
      ],
      "min": [
        0
      ],
      "type": "SCALAR"
    },
    {
      "bufferView": 2,
      "byteOffset": 4718304,
      "componentType": 5126,
      "count": 65532,
      "max": [
        -2.6010091304779053,
        33.094341278076172,
        21.17315673828125
      ],
      "min": [
        -59.073604583740234,
        -34.120388031005859,
        -0.30847173929214478
      ],
      "type": "VEC3"
    },
    {
      "bufferView": 2,
      "byteOffset": 5504688,
      "componentType": 5126,
      "count": 65532,
      "max": [
        0.99998992681503296,
        0.99997222423553467,
        0.99999940395355225
      ],
      "min": [
        -0.9999733567237854,
        -0.99994027614593506,
        -0.99994403123855591
      ],
      "type": "VEC3"
    },
    {
      "bufferView": 1,
      "byteOffset": 1572768,
      "componentType": 5126,
      "count": 65532,
      "max": [
        0.99957269430160522,
        0.93634021282196045
      ],
      "min": [
        0.00018310546875,
        0.00042714609298855066
      ],
      "type": "VEC2"
    },
    {
      "bufferView": 0,
      "byteOffset": 2701044,
      "componentType": 5125,
      "count": 210111,
      "max": [
        65531
      ],
      "min": [
        0
      ],
      "type": "SCALAR"
    },
    {
      "bufferView": 2,
      "byteOffset": 6291072,
      "componentType": 5126,
      "count": 65532,
      "max": [
        -11.115501403808594,
        33.040920257568359,
        16.76637077331543
      ],
      "min": [
        -58.867343902587891,
        -36.326808929443359,
        -0.30751261115074158
      ],
      "type": "VEC3"
    },
    {
      "bufferView": 2,
      "byteOffset": 7077456,
      "componentType": 5126,
      "count": 65532,
      "max": [
        0.9999423623085022,
        0.99996012449264526,
        0.9999992847442627
      ],
      "min": [
        -0.99974650144577026,
        -0.99999958276748657,
        -0.99737876653671265
      ],
      "type": "VEC3"
    },
    {
      "bufferView": 1,
      "byteOffset": 2097024,
      "componentType": 5126,
      "count": 65532,
      "max": [
        0.99957269430160522,
        0.93634021282196045
      ],
      "min": [
        0.00018310546875,
        0.00042714609298855066
      ],
      "type": "VEC2"
    },
    {
      "bufferView": 0,
      "byteOffset": 3541488,
      "componentType": 5125,
      "count": 216252,
      "max": [
        65531
      ],
      "min": [
        0
      ],
      "type": "SCALAR"
    },
    {
      "bufferView": 2,
      "byteOffset": 7863840,
      "componentType": 5126,
      "count": 65532,
      "max": [
        -13.772151947021484,
        19.234899520874023,
        26.691120147705078
      ],
      "min": [
        -58.59136962890625,
        -30.597265243530273,
        -0.14591604471206665
      ],
      "type": "VEC3"
    },
    {
      "bufferView": 2,
      "byteOffset": 8650224,
      "componentType": 5126,
      "count": 65532,
      "max": [
        0.99999469518661499,
        0.99999618530273438,
        0.99999982118606567
      ],
      "min": [
        -0.999977707862854,
        -0.9999929666519165,
        -0.99947953224182129
      ],
      "type": "VEC3"
    },
    {
      "bufferView": 1,
      "byteOffset": 2621280,
      "componentType": 5126,
      "count": 65532,
      "max": [
        0.99957275390625,
        0.93634021282196045
      ],
      "min": [
        0.00018310546875,
        0.00042714609298855066
      ],
      "type": "VEC2"
    },
    {
      "bufferView": 0,
      "byteOffset": 4406496,
      "componentType": 5125,
      "count": 217497,
      "max": [
        65531
      ],
      "min": [
        0
      ],
      "type": "SCALAR"
    },
    {
      "bufferView": 2,
      "byteOffset": 9436608,
      "componentType": 5126,
      "count": 65532,
      "max": [
        -17.148181915283203,
        7.0984573364257812,
        26.787725448608398
      ],
      "min": [
        -44.529853820800781,
        -16.332172393798828,
        0.44072279334068298
      ],
      "type": "VEC3"
    },
    {
      "bufferView": 2,
      "byteOffset": 10222992,
      "componentType": 5126,
      "count": 65532,
      "max": [
        0.99998205900192261,
        0.99999672174453735,
        0.99999946355819702
      ],
      "min": [
        -0.99999994039535522,
        -0.9999968409538269,
        -0.99801313877105713
      ],
      "type": "VEC3"
    },
    {
      "bufferView": 1,
      "byteOffset": 3145536,
      "componentType": 5126,
      "count": 65532,
      "max": [
        0.99957269430160522,
        0.93634021282196045
      ],
      "min": [
        0.00018310546875,
        0.00042714609298855066
      ],
      "type": "VEC2"
    },
    {
      "bufferView": 0,
      "byteOffset": 5276484,
      "componentType": 5125,
      "count": 227514,
      "max": [
        65531
      ],
      "min": [
        0
      ],
      "type": "SCALAR"
    },
    {
      "bufferView": 2,
      "byteOffset": 11009376,
      "componentType": 5126,
      "count": 65533,
      "max": [
        -17.250307083129883,
        7.0984573364257812,
        27.685441970825195
      ],
      "min": [
        -45.292942047119141,
        -21.746006011962891,
        0.49235165119171143
      ],
      "type": "VEC3"
    },
    {
      "bufferView": 2,
      "byteOffset": 11795772,
      "componentType": 5126,
      "count": 65533,
      "max": [
        0.99999713897705078,
        0.99999982118606567,
        0.99999982118606567
      ],
      "min": [
        -0.99999755620956421,
        -0.99997794628143311,
        -0.99843007326126099
      ],
      "type": "VEC3"
    },
    {
      "bufferView": 1,
      "byteOffset": 3669792,
      "componentType": 5126,
      "count": 65533,
      "max": [
        0.99957275390625,
        0.93756091594696045
      ],
      "min": [
        0.00018310546875,
        0.00042714609298855066
      ],
      "type": "VEC2"
    },
    {
      "bufferView": 0,
      "byteOffset": 6186540,
      "componentType": 5125,
      "count": 212169,
      "max": [
        65532
      ],
      "min": [
        0
      ],
      "type": "SCALAR"
    },
    {
      "bufferView": 2,
      "byteOffset": 12582168,
      "componentType": 5126,
      "count": 65532,
      "max": [
        -3.1114580631256104,
        8.7908611297607422,
        25.875223159790039
      ],
      "min": [
        -58.403915405273438,
        -36.296901702880859,
        -0.30809563398361206
      ],
      "type": "VEC3"
    },
    {
      "bufferView": 2,
      "byteOffset": 13368552,
      "componentType": 5126,
      "count": 65532,
      "max": [
        0.999794602394104,
        0.99998998641967773,
        0.99998933076858521
      ],
      "min": [
        -0.99998795986175537,
        -0.99985033273696899,
        -0.99879986047744751
      ],
      "type": "VEC3"
    },
    {
      "bufferView": 1,
      "byteOffset": 4194056,
      "componentType": 5126,
      "count": 65532,
      "max": [
        0.99957269430160522,
        0.93634021282196045
      ],
      "min": [
        0.00018310546875,
        0.00042714609298855066
      ],
      "type": "VEC2"
    },
    {
      "bufferView": 0,
      "byteOffset": 7035216,
      "componentType": 5125,
      "count": 178875,
      "max": [
        65531
      ],
      "min": [
        0
      ],
      "type": "SCALAR"
    },
    {
      "bufferView": 2,
      "byteOffset": 14154936,
      "componentType": 5126,
      "count": 65532,
      "max": [
        -3.1176662445068359,
        33.094242095947266,
        22.937931060791016
      ],
      "min": [
        -58.627605438232422,
        -36.270133972167969,
        -0.30834737420082092
      ],
      "type": "VEC3"
    },
    {
      "bufferView": 2,
      "byteOffset": 14941320,
      "componentType": 5126,
      "count": 65532,
      "max": [
        0.99991172552108765,
        0.99981206655502319,
        0.99998223781585693
      ],
      "min": [
        -0.99996918439865112,
        -0.99984383583068848,
        -0.99997514486312866
      ],
      "type": "VEC3"
    },
    {
      "bufferView": 1,
      "byteOffset": 4718312,
      "componentType": 5126,
      "count": 65532,
      "max": [
        0.99957275390625,
        0.93695056438446045
      ],
      "min": [
        0.00018310546875,
        0.00042714609298855066
      ],
      "type": "VEC2"
    },
    {
      "bufferView": 0,
      "byteOffset": 7750716,
      "componentType": 5125,
      "count": 177774,
      "max": [
        65531
      ],
      "min": [
        0
      ],
      "type": "SCALAR"
    },
    {
      "bufferView": 2,
      "byteOffset": 15727704,
      "componentType": 5126,
      "count": 65532,
      "max": [
        -10.521918296813965,
        32.943576812744141,
        18.944869995117188
      ],
      "min": [
        -28.564962387084961,
        -30.790475845336914,
        -0.13884979486465454
      ],
      "type": "VEC3"
    },
    {
      "bufferView": 2,
      "byteOffset": 16514088,
      "componentType": 5126,
      "count": 65532,
      "max": [
        0.99998515844345093,
        0.9999241828918457,
        0.99998617172241211
      ],
      "min": [
        -0.99996912479400635,
        -0.99992185831069946,
        -0.99996489286422729
      ],
      "type": "VEC3"
    },
    {
      "bufferView": 1,
      "byteOffset": 5242568,
      "componentType": 5126,
      "count": 65532,
      "max": [
        0.99957269430160522,
        0.93634021282196045
      ],
      "min": [
        0.00018310546875,
        0.00042714609298855066
      ],
      "type": "VEC2"
    },
    {
      "bufferView": 0,
      "byteOffset": 8461812,
      "componentType": 5125,
      "count": 179061,
      "max": [
        65531
      ],
      "min": [
        0
      ],
      "type": "SCALAR"
    },
    {
      "bufferView": 2,
      "byteOffset": 17300472,
      "componentType": 5126,
      "count": 38177,
      "max": [
        -10.529961585998535,
        -11.092878341674805,
        16.929815292358398
      ],
      "min": [
        -56.127910614013672,
        -36.297203063964844,
        -0.30751261115074158
      ],
      "type": "VEC3"
    },
    {
      "bufferView": 2,
      "byteOffset": 17758596,
      "componentType": 5126,
      "count": 38177,
      "max": [
        0.99953657388687134,
        0.99946689605712891,
        0.99999982118606567
      ],
      "min": [
        -0.99995845556259155,
        -0.99997913837432861,
        -0.99774032831192017
      ],
      "type": "VEC3"
    },
    {
      "bufferView": 1,
      "byteOffset": 5766824,
      "componentType": 5126,
      "count": 38177,
      "max": [
        0.99957269430160522,
        0.93511950969696045
      ],
      "min": [
        0.00018310546875,
        0.00042714609298855066
      ],
      "type": "VEC2"
    },
    {
      "bufferView": 0,
      "byteOffset": 9178056,
      "componentType": 5125,
      "count": 98772,
      "max": [
        38176
      ],
      "min": [
        0
      ],
      "type": "SCALAR"
    }
  ],
  "asset": {
    "extras": {
      "author": "FUD-UJEP (https://sketchfab.com/FUD-UJEP)",
      "license": "CC-BY-4.0 (http://creativecommons.org/licenses/by/4.0/)",
      "source": "https://sketchfab.com/3d-models/butron-castle-1ec4dc9a903c4bfeba9e1abcdbac2ae6",
      "title": "Butron castle"
    },
    "generator": "Sketchfab-10.39.2",
    "version": "2.0"
  },
  "bufferViews": [
    {
      "buffer": 0,
      "byteLength": 9573144,
      "byteOffset": 0,
      "name": "floatBufferViews",
      "target": 34963
    },
    {
      "buffer": 0,
      "byteLength": 6072240,
      "byteOffset": 9573144,
      "byteStride": 8,
      "name": "floatBufferViews",
      "target": 34962
    },
    {
      "buffer": 0,
      "byteLength": 18216720,
      "byteOffset": 15645384,
      "byteStride": 12,
      "name": "floatBufferViews",
      "target": 34962
    }
  ],
  "buffers": [
    {
      "byteLength": 33862104,
      "uri": "scene.bin"
    }
  ],
  "extensionsUsed": [
    "KHR_materials_unlit"
  ],
  "images": [
    {
      "uri": "textures/Material_u1_v1_baseColor.jpeg"
    }
  ],
  "materials": [
    {
      "doubleSided": true,
      "extensions": {
        "KHR_materials_unlit": {}
      },
      "name": "Material_u1_v1",
      "pbrMetallicRoughness": {
        "baseColorFactor": [
          1,
          1,
          1,
          1
        ],
        "baseColorTexture": {
          "index": 0,
          "texCoord": 0
        },
        "metallicFactor": 0,
        "roughnessFactor": 1
      }
    }
  ],
  "meshes": [
    {
      "name": "meshNode_Material_u1_v1_0",
      "primitives": [
        {
          "attributes": {
            "NORMAL": 1,
            "POSITION": 0,
            "TEXCOORD_0": 2
          },
          "indices": 3,
          "material": 0,
          "mode": 4
        }
      ]
    },
    {
      "name": "meshNode_Material_u1_v1_0",
      "primitives": [
        {
          "attributes": {
            "NORMAL": 5,
            "POSITION": 4,
            "TEXCOORD_0": 6
          },
          "indices": 7,
          "material": 0,
          "mode": 4
        }
      ]
    },
    {
      "name": "meshNode_Material_u1_v1_0",
      "primitives": [
        {
          "attributes": {
            "NORMAL": 9,
            "POSITION": 8,
            "TEXCOORD_0": 10
          },
          "indices": 11,
          "material": 0,
          "mode": 4
        }
      ]
    },
    {
      "name": "meshNode_Material_u1_v1_0",
      "primitives": [
        {
          "attributes": {
            "NORMAL": 13,
            "POSITION": 12,
            "TEXCOORD_0": 14
          },
          "indices": 15,
          "material": 0,
          "mode": 4
        }
      ]
    },
    {
      "name": "meshNode_Material_u1_v1_0",
      "primitives": [
        {
          "attributes": {
            "NORMAL": 17,
            "POSITION": 16,
            "TEXCOORD_0": 18
          },
          "indices": 19,
          "material": 0,
          "mode": 4
        }
      ]
    },
    {
      "name": "meshNode_Material_u1_v1_0",
      "primitives": [
        {
          "attributes": {
            "NORMAL": 21,
            "POSITION": 20,
            "TEXCOORD_0": 22
          },
          "indices": 23,
          "material": 0,
          "mode": 4
        }
      ]
    },
    {
      "name": "meshNode_Material_u1_v1_0",
      "primitives": [
        {
          "attributes": {
            "NORMAL": 25,
            "POSITION": 24,
            "TEXCOORD_0": 26
          },
          "indices": 27,
          "material": 0,
          "mode": 4
        }
      ]
    },
    {
      "name": "meshNode_Material_u1_v1_0",
      "primitives": [
        {
          "attributes": {
            "NORMAL": 29,
            "POSITION": 28,
            "TEXCOORD_0": 30
          },
          "indices": 31,
          "material": 0,
          "mode": 4
        }
      ]
    },
    {
      "name": "meshNode_Material_u1_v1_0",
      "primitives": [
        {
          "attributes": {
            "NORMAL": 33,
            "POSITION": 32,
            "TEXCOORD_0": 34
          },
          "indices": 35,
          "material": 0,
          "mode": 4
        }
      ]
    },
    {
      "name": "meshNode_Material_u1_v1_0",
      "primitives": [
        {
          "attributes": {
            "NORMAL": 37,
            "POSITION": 36,
            "TEXCOORD_0": 38
          },
          "indices": 39,
          "material": 0,
          "mode": 4
        }
      ]
    },
    {
      "name": "meshNode_Material_u1_v1_0",
      "primitives": [
        {
          "attributes": {
            "NORMAL": 41,
            "POSITION": 40,
            "TEXCOORD_0": 42
          },
          "indices": 43,
          "material": 0,
          "mode": 4
        }
      ]
    },
    {
      "name": "meshNode_Material_u1_v1_0",
      "primitives": [
        {
          "attributes": {
            "NORMAL": 45,
            "POSITION": 44,
            "TEXCOORD_0": 46
          },
          "indices": 47,
          "material": 0,
          "mode": 4
        }
      ]
    }
  ],
  "nodes": [
    {
      "children": [
        1
      ],
      "name": "RootNode (gltf orientation matrix)",
      "rotation": [
        -0.70710678118654746,
        -0,
        -0,
        0.70710678118654757
      ]
    },
    {
      "children": [
        2
      ],
      "matrix": [
        0.011256257072091103,
        0,
        0,
        0,
        0,
        0.011256257072091103,
        0,
        0,
        0,
        0,
        0.011256257072091103,
        0,
        0,
        0,
        0,
        1
      ],
      "name": "RootNode (model correction matrix)"
    },
    {
      "children": [
        3
      ],
      "matrix": [
        1,
        0,
        0,
        0,
        0,
        0,
        1,
        0,
        0,
        -1,
        0,
        0,
        0,
        0,
        0,
        1
      ],
      "name": "butron2.fbx"
    },
    {
      "children": [
        4
      ],
      "name": "RootNode"
    },
    {
      "children": [
        5,
        6,
        7,
        8,
        9,
        10,
        11,
        12,
        13,
        14,
        15,
        16
      ],
      "matrix": [
        7.5497899598708784e-06,
        1.1102230246251565e-14,
        99.999999999999716,
        0,
        99.999999999999616,
        -4.3711390063094768e-06,
        -7.5497899543197633e-06,
        0,
        4.3711390063094768e-06,
        99.999999999999915,
        -3.5527136788005009e-13,
        0,
        0,
        0,
        3210.261962890625,
        1
      ],
      "name": "meshNode"
    },
    {
      "mesh": 0,
      "name": "meshNode_Material_u1_v1_0"
    },
    {
      "mesh": 1,
      "name": "meshNode_Material_u1_v1_0"
    },
    {
      "mesh": 2,
      "name": "meshNode_Material_u1_v1_0"
    },
    {
      "mesh": 3,
      "name": "meshNode_Material_u1_v1_0"
    },
    {
      "mesh": 4,
      "name": "meshNode_Material_u1_v1_0"
    },
    {
      "mesh": 5,
      "name": "meshNode_Material_u1_v1_0"
    },
    {
      "mesh": 6,
      "name": "meshNode_Material_u1_v1_0"
    },
    {
      "mesh": 7,
      "name": "meshNode_Material_u1_v1_0"
    },
    {
      "mesh": 8,
      "name": "meshNode_Material_u1_v1_0"
    },
    {
      "mesh": 9,
      "name": "meshNode_Material_u1_v1_0"
    },
    {
      "mesh": 10,
      "name": "meshNode_Material_u1_v1_0"
    },
    {
      "mesh": 11,
      "name": "meshNode_Material_u1_v1_0"
    }
  ],
  "samplers": [
    {
      "magFilter": 9729,
      "minFilter": 9987,
      "wrapS": 10497,
      "wrapT": 10497
    }
  ],
  "scene": 0,
  "scenes": [
    {
      "name": "OSG_Scene",
      "nodes": [
        0
      ]
    }
  ],
  "textures": [
    {
      "sampler": 0,
      "source": 0
    }
  ]
}

